<svg width="174" height="34" viewBox="0 0 174 34" fill="none" xmlns="http://www.w3.org/2000/svg">
<path d="M11.7154 33.3434H5.21866V16.9748H0.792969V11.6455H5.21849V7.85332C5.21849 3.35959 7.1759 0.136719 13.655 0.136719C15.0254 0.136719 17.1768 0.415878 17.1768 0.415878V5.36441H14.9171C12.6147 5.36441 11.7157 6.07224 11.7157 8.02914V11.6455H17.0906L16.6119 16.9748H11.7156L11.7154 33.3434ZM26.6223 11.2196C26.5276 11.2196 26.4302 11.2231 26.3338 11.2255C20.3097 11.2255 17.5535 15.8053 17.5535 22.3065C17.5535 30.4962 21.1287 33.774 26.3809 33.774C29.3859 33.774 31.3602 32.4956 32.5602 30.1101V33.3456H38.7395V11.6478H32.5602V14.9846C31.5804 12.8378 29.5509 11.245 26.6223 11.2196ZM28.1935 16.3468C30.7237 16.3468 32.2423 18.1304 32.2423 21.1644L32.2482 24.2632C32.2482 26.3081 30.9939 28.7005 28.1935 28.7005C23.8883 28.7005 24.0033 24.0022 24.0033 22.4374C24.0033 17.1736 26.2971 16.3468 28.1935 16.3468ZM41.2351 22.4978C41.2351 19.8612 41.1102 11.2337 52.2316 11.2337C56.6959 11.2337 58.5601 12.6684 58.5601 12.6684L57.0618 17.3651C57.0618 17.3651 55.2001 16.329 52.7742 16.329C49.6671 16.329 47.6846 18.1494 47.6846 21.3524L47.688 23.6491C47.688 26.7269 49.6009 28.7814 52.7806 28.7814C54.9906 28.7814 57.0275 27.7355 57.0275 27.7355L58.522 32.3341C58.522 32.3341 56.8175 33.7778 52.2628 33.7778C41.6735 33.7778 41.2352 26.0373 41.2352 22.4978H41.2351ZM94.7916 11.2255C100.816 11.2255 103.616 15.8053 103.616 22.3065C103.616 30.4962 100.04 33.774 94.788 33.774C91.783 33.774 89.5616 32.4958 88.3616 30.1101V33.3456L82.2601 33.3432V0.796454L88.7384 0.225415V14.6906C89.6734 12.1599 92.7461 11.2255 94.7918 11.2255H94.7916ZM92.9754 16.3468C90.4453 16.3468 88.7384 18.1304 88.7384 21.1644L88.7323 24.2632C88.7285 26.3081 89.9144 28.7005 92.9754 28.7005C97.2806 28.7005 97.1656 24.0022 97.1656 22.4374C97.1656 17.1736 94.872 16.3468 92.9754 16.3468ZM69.8004 11.2435C62.9677 11.2435 59.3604 15.0086 59.3604 21.6997V22.9429C59.3604 31.6273 64.4261 33.8632 70.4654 33.8632C76.3356 33.8632 78.9927 32.2038 78.9927 32.2038L77.7804 27.7846C77.7804 27.7846 74.6549 29.1286 71.2421 29.1286C67.7042 29.1286 66.1827 28.2173 65.7927 24.7809H79.5106V21.2357C79.5106 13.9776 75.4622 11.2433 69.8003 11.2433L69.8004 11.2435ZM69.9651 15.6686C72.3303 15.6686 73.8628 17.1344 73.7787 20.534H65.8046C65.9428 16.956 67.5956 15.6687 69.9651 15.6687V15.6686ZM116.533 11.2137C109.516 11.2137 105.822 15.2101 105.822 22.3718C105.822 32.1982 112.19 33.7799 116.545 33.7799C122.92 33.7799 127.161 30.311 127.161 22.4611C127.161 14.2907 122.392 11.2137 116.533 11.2137ZM116.445 16.3645C119.53 16.3645 120.753 18.6983 120.753 21.3549V23.6389C120.753 26.857 119.042 28.7184 116.433 28.7184C113.993 28.7184 112.278 26.9773 112.278 23.6389V21.3549C112.278 17.7945 114.319 16.3645 116.445 16.3645ZM140.067 11.2137C133.05 11.2137 129.357 15.2101 129.357 22.3718C129.357 32.1982 135.724 33.7799 140.079 33.7799C146.454 33.7799 150.695 30.311 150.695 22.4611C150.695 14.2907 145.926 11.2137 140.067 11.2137ZM139.979 16.3645C143.064 16.3645 144.287 18.6983 144.287 21.3549V23.6389C144.287 26.857 142.576 28.7184 139.967 28.7184C137.527 28.7184 135.812 26.9773 135.812 23.6389V21.3549C135.812 17.7945 137.853 16.3645 139.979 16.3645ZM153.144 33.3434V0.796454L159.641 0.225415V22.0404L166.087 11.6455H172.948L166.224 22.4116L173.207 33.3434H166.326L159.641 22.7287V33.3434H153.144Z" fill="#FCFCFC"/>
</svg>
