<svg width="154" height="52" viewBox="0 0 154 52" fill="none" xmlns="http://www.w3.org/2000/svg">
<path d="M19.0589 0.636719H20.4262C25.1731 0.741015 29.8426 2.6705 33.1964 6.08622C31.9581 7.36385 30.694 8.58933 29.4814 9.86697C27.5982 8.14607 25.3279 6.81629 22.8512 6.34696C19.1879 5.56473 15.2407 6.26873 12.1707 8.38074C8.81689 10.597 6.54663 14.3517 6.05646 18.3671C5.51469 22.3304 6.62403 26.5023 9.17807 29.579C11.6289 32.5775 15.3697 34.4549 19.2395 34.5853C22.8512 34.7938 26.6178 33.6727 29.2493 31.1174C31.3131 29.3183 32.2677 26.5805 32.5773 23.9209C28.2947 23.9209 24.0122 23.947 19.7296 23.9209V18.5497H37.7627C38.6915 24.312 37.35 30.8045 33.0158 34.9242C30.1264 37.8445 26.1276 39.5654 22.0515 39.9044C18.1043 40.2955 14.0282 39.5393 10.5196 37.6099C6.31445 35.3414 2.96065 31.5085 1.30955 26.9977C-0.238357 22.8519 -0.264155 18.1585 1.18056 13.9867C2.49628 10.1799 5.02452 6.81629 8.27513 4.46962C11.3967 2.14902 15.1891 0.871386 19.0589 0.636719Z" fill="#FCFCFC"/>
<path d="M122.511 1.99268H128.032V39.2265C126.2 39.2265 124.343 39.2526 122.511 39.2004C122.537 26.8152 122.511 14.4039 122.511 1.99268Z" fill="#FCFCFC"/>
<path d="M50.0421 14.8993C53.4475 14.2474 57.1367 14.9775 59.9487 17.0373C62.5028 18.8625 64.2828 21.7306 64.8246 24.8595C65.5212 28.4838 64.644 32.447 62.3222 35.3152C59.8197 38.5223 55.7178 40.2431 51.719 39.9824C48.0556 39.7738 44.4954 37.9226 42.3284 34.898C39.8775 31.5605 39.2841 26.9715 40.6257 23.0604C41.9672 18.8625 45.7595 15.6554 50.0421 14.8993ZM50.816 19.8533C49.4229 20.2183 48.133 21.0266 47.2043 22.1739C44.7018 25.1985 44.8566 30.1264 47.617 32.9424C49.1907 34.559 51.5642 35.3152 53.7571 34.8719C55.7951 34.5069 57.5752 33.125 58.5556 31.2998C60.2583 28.197 59.7681 23.9208 57.1625 21.496C55.4856 19.9315 53.0347 19.2797 50.816 19.8533Z" fill="#FCFCFC"/>
<path d="M77.386 14.8992C81.2816 14.1431 85.5383 15.2382 88.4536 18.0021C93.2005 22.3043 93.7165 30.3612 89.6661 35.3153C87.2152 38.4442 83.2423 40.1651 79.3209 39.9826C75.5801 39.8783 71.891 38.001 69.6723 34.8981C67.1698 31.4824 66.6281 26.7891 68.047 22.7997C69.4659 18.7321 73.1809 15.6293 77.386 14.8992ZM78.16 19.8533C76.7669 20.2184 75.4769 21.0267 74.5482 22.1479C72.0716 25.1203 72.1747 29.9701 74.832 32.8122C76.4057 34.507 78.8565 35.3414 81.1268 34.8721C83.1391 34.4809 84.945 33.1251 85.9253 31.2999C87.6022 28.171 87.1121 23.8948 84.4806 21.4699C82.8037 19.9055 80.3529 19.2797 78.16 19.8533Z" fill="#FCFCFC"/>
<path d="M100.582 16.4119C103.549 14.5345 107.496 14.013 110.695 15.6296C111.701 16.0729 112.527 16.829 113.326 17.5852C113.352 16.8812 113.326 16.1511 113.352 15.421C115.081 15.4471 116.809 15.421 118.564 15.4471V38.4445C118.538 41.9123 117.661 45.5888 115.184 48.118C112.475 50.9079 108.322 51.7683 104.581 51.1947C100.582 50.595 97.0992 47.6486 95.5513 43.92C97.0992 43.1639 98.7245 42.5642 100.324 41.8602C101.227 43.9983 103.059 45.8234 105.355 46.2406C107.651 46.6578 110.308 46.0842 111.804 44.1547C113.404 42.1731 113.404 39.4614 113.326 37.0365C112.14 38.2098 110.772 39.2528 109.121 39.6439C105.535 40.6608 101.588 39.4092 98.8277 36.9582C96.0415 34.5073 94.3904 30.7265 94.5452 26.9719C94.6226 22.7218 96.996 18.6282 100.582 16.4119ZM105.922 19.7493C104.349 20.0101 102.878 20.8966 101.872 22.1221C99.4469 25.0424 99.4469 29.7096 101.898 32.5778C103.291 34.2726 105.535 35.2113 107.702 34.9766C109.74 34.768 111.624 33.4643 112.63 31.6652C114.333 28.6145 114.049 24.4687 111.753 21.8092C110.334 20.1665 108.064 19.3582 105.922 19.7493Z" fill="#FCFCFC"/>
<path d="M134.658 17.7413C137.754 14.821 142.527 13.8302 146.5 15.3686C150.266 16.8026 152.665 20.4269 153.878 24.1555C148.28 26.5022 142.707 28.8228 137.109 31.1695C137.883 32.6557 139.07 34.0116 140.669 34.5591C142.914 35.3674 145.597 35.0806 147.48 33.5683C148.228 32.9947 148.822 32.2385 149.389 31.5084C150.808 32.4732 152.227 33.4119 153.646 34.3766C151.634 37.4273 148.254 39.5653 144.616 39.9043C140.592 40.3997 136.309 38.8353 133.704 35.6542C129.421 30.648 129.834 22.2521 134.658 17.7413ZM137.419 22.565C136.541 23.8427 136.18 25.4071 136.206 26.9455C139.947 25.381 143.688 23.8166 147.428 22.2261C146.809 20.7659 145.313 19.8794 143.791 19.6447C141.34 19.2015 138.786 20.5312 137.419 22.565Z" fill="#FCFCFC"/>
</svg>
