<svg width="136" height="46" viewBox="0 0 136 46" fill="none" xmlns="http://www.w3.org/2000/svg">
<path d="M130.038 8.68378H124.073V0.33252H110.975L104.951 8.68378H94.247L90.6679 12.2629V8.68378H82.3166V0.33252H56.0698V8.68378H19.1453L13.1205 0.33252H-0.00292969V28.9654L16.6996 45.6679H33.4021V40.8958L38.1743 45.6679H70.3863V40.8958L75.1584 45.6679H90.6679V40.8958L95.44 45.6679H125.266L136.003 34.9306V14.649L130.038 8.68378ZM20.2787 20.6142H11.9274V23.0002H20.2787V32.5445H7.15529L2.38314 27.7724V2.71859H11.9274V11.0699H20.2787V20.6142ZM56.0698 32.5445H27.4369L22.6648 27.7724V11.0699H32.2091V23.0002H34.5951V11.0699H44.1395V23.0002H46.5255V11.0699H56.0698V32.5445ZM68.0002 32.5445H58.4559V11.0699H68.0002V32.5445ZM68.0002 8.68378H58.4559V2.71859H68.0002V8.68378ZM88.2818 20.6142H79.9306V23.0002H88.2818V32.5445H75.1584L70.3863 27.7724V2.71859H79.9306V11.0699H88.2818V20.6142ZM109.756 20.6142H100.212V23.0002H109.756V32.5445H95.44L90.6679 27.7724V15.842L95.44 11.0699H109.756V20.6142ZM133.617 32.5445H124.073V20.6142H121.687V32.5445H112.143V2.71859H121.687V11.0699H128.845L133.617 15.842V32.5445Z" fill="#FCFCFC"/>
</svg>
