<svg width="176" height="40" viewBox="0 0 176 40" fill="none" xmlns="http://www.w3.org/2000/svg">
<path d="M29.6791 39.4923L18.2095 39.2802C14.4958 39.2064 10.773 39.354 7.13232 38.5886C1.59371 37.445 1.20136 31.8381 0.79075 27.1348C0.225027 20.5227 0.444017 13.7906 1.51159 7.23377C2.11381 3.5542 4.4862 1.35936 8.15427 1.11959C20.5363 0.252721 33.0005 0.354163 45.3551 0.759931C46.6599 0.796819 47.9739 0.999703 49.2604 1.23025C55.6111 2.35534 55.7663 8.70929 56.1769 14.0581C56.5875 19.4621 56.4141 24.8939 55.6294 30.2611C54.9998 34.7061 53.7954 38.4318 48.713 38.7915C42.344 39.2618 36.1211 39.6399 29.7339 39.52C29.7339 39.4923 29.6974 39.4923 29.6791 39.4923ZM22.9361 28.2415C27.7356 25.4564 32.4439 22.7175 37.216 19.9509C32.4074 17.1659 27.7082 14.4269 22.9361 11.6603V28.2415Z" fill="#FCFCFC"/>
<path d="M148.174 34.4388C147.955 35.3426 147.763 36.0527 147.572 36.8089H143.083V1.81104H148.32V14.722C148.594 14.3715 148.731 14.224 148.849 14.0672C149.743 12.8222 150.902 12.0107 152.399 11.6971C154.78 11.2268 156.815 12.2873 157.536 14.6021C158.001 16.0407 158.302 17.5808 158.339 19.084C158.412 22.9481 158.357 26.8029 158.22 30.667C158.165 31.8474 157.81 33.0555 157.362 34.1621C155.893 37.8141 151.094 38.3674 148.712 35.2042C148.566 35.0106 148.43 34.7985 148.174 34.4388ZM148.43 24.8109V31.2111C148.43 32.2532 148.977 32.8895 150.008 33.1293C151.021 33.369 151.842 32.9725 152.253 32.0226C152.426 31.6261 152.599 31.2111 152.609 30.7961C152.709 26.8859 152.8 22.9757 152.828 19.0563C152.828 18.3278 152.654 17.5716 152.435 16.8615C152.025 15.5796 150.893 15.2015 149.78 15.9485C148.941 16.5203 148.43 17.3318 148.43 18.4108V24.8109ZM134.195 12.1951H139.679V36.8273H135.4C135.245 35.8959 135.089 34.9368 134.907 33.8117C134.615 34.2451 134.442 34.5218 134.259 34.7985C132.836 36.8734 130.819 37.5835 128.438 37.2054C126.403 36.8734 125.18 35.2872 124.906 32.6866C124.824 31.9119 124.788 31.1281 124.788 30.3534C124.77 24.5896 124.788 18.8073 124.788 13.0435V12.1767H130.336V13.1819C130.336 18.752 130.317 24.3129 130.354 29.8831C130.354 30.6762 130.436 31.4969 130.573 32.29C130.728 33.1016 131.312 33.3967 132.097 33.3414C133.365 33.2399 134.241 32.29 134.241 31.0174V13.2833C134.195 12.9237 134.195 12.5917 134.195 12.1951ZM96.4379 12.1767H101.949V13.2188C101.949 18.7612 101.931 24.2945 101.967 29.8185C101.967 30.6116 102.04 31.4324 102.205 32.207C102.414 33.12 102.944 33.4151 103.847 33.2953C105.097 33.12 105.854 32.2439 105.864 30.9621V13.3202V12.2136H111.347V36.8273H107.086C106.931 35.9143 106.776 34.9737 106.575 33.784C106.301 34.199 106.146 34.4388 105.991 34.6878C104.568 36.7996 102.57 37.5743 100.133 37.1962C98.1806 36.9011 96.9853 35.444 96.6203 33.0555C96.52 32.3085 96.447 31.5707 96.447 30.8237C96.4287 24.8386 96.4287 18.8258 96.4287 12.8407L96.4379 12.1767ZM93.6092 25.3274C93.591 26.1574 93.5362 26.9873 93.4906 27.8173C93.2808 30.3073 93.1804 33.8394 91.1912 35.6561C89.9229 36.7996 88.317 37.2146 86.6563 37.27C85.9172 37.2884 85.169 37.2884 84.4299 37.187C80.9352 36.6521 79.3111 35.0936 78.7271 31.2111C78.061 26.7291 78.0063 22.1734 78.8001 17.6915C79.6213 13.0528 82.4499 11.4112 86.848 11.7156C90.954 12.0107 92.788 14.7312 93.2716 18.6045C93.5362 20.827 93.664 23.0772 93.6092 25.3274ZM88.025 24.4789C88.025 22.902 88.0615 21.3158 88.0068 19.7388C87.9703 18.8258 87.8516 17.9036 87.66 16.9998C87.441 15.9577 86.7841 15.4597 85.9629 15.4782C85.1599 15.4966 84.5942 15.9946 84.3022 16.9629C84.2018 17.3226 84.0923 17.6915 84.0923 18.0511C84.0923 20.5227 84.0741 23.0034 84.0558 25.4749C84.0376 27.7804 83.7456 30.1966 84.4664 32.4007C84.6854 33.0739 85.2512 33.4428 85.9902 33.4428C86.7111 33.4428 87.1856 33.0831 87.4502 32.4376C87.66 31.9396 87.8425 31.3955 87.8425 30.8606C87.9064 28.7395 88.025 26.6092 88.025 24.4789ZM70.6792 19.8402C71.1628 17.4517 71.6191 15.1185 72.1209 12.7761C72.7505 9.79737 73.4531 6.81863 74.0736 3.83067C74.2287 3.10213 74.5207 2.92691 75.205 2.94535C76.6741 3.00068 78.1705 2.9638 79.7399 2.9638C79.2289 4.86355 78.7271 6.67108 78.2344 8.45094C76.6741 14.0395 75.1138 19.6466 73.5717 25.2536C73.4531 25.687 73.3984 26.1574 73.3984 26.6185C73.3801 29.6802 73.3984 32.7327 73.3984 35.7944V36.7904H68.0422C68.024 36.5138 67.9875 36.2371 67.9875 35.9604C67.9875 34.2267 67.8506 32.4837 68.0058 30.7684C68.3981 26.6461 67.1024 22.8558 66.0531 19.0195C64.6662 13.9473 63.261 8.85671 61.8741 3.78456C61.8011 3.54479 61.7737 3.28657 61.7007 2.99146H67.1663C68.316 8.58927 69.4748 14.1871 70.6792 19.8402ZM175.475 26.268H166.241C166.341 28.1401 166.378 29.92 166.569 31.6814C166.706 32.9079 167.372 33.4336 168.421 33.4428C169.516 33.4613 170.155 32.9079 170.411 31.6906C170.493 31.2941 170.547 30.8975 170.584 30.4917C170.62 30.1321 170.639 29.7447 170.666 29.2283C172.226 29.3113 173.75 29.4035 175.256 29.4681C176.132 32.0964 174.553 35.4717 171.898 36.5138C169.808 37.3438 167.664 37.3438 165.529 36.7074C163.95 36.2371 162.773 35.2227 162.244 33.6641C161.751 32.207 161.286 30.6854 161.186 29.1638C160.912 25.4104 160.812 21.6201 161.377 17.8575C161.478 17.2304 161.651 16.6309 161.843 16.0223C162.609 13.5139 164.279 11.9738 166.861 11.7156C168.266 11.5772 169.717 11.6326 171.104 11.8723C173.349 12.2689 174.544 13.9012 175.064 16.0407C175.301 17.0459 175.475 18.0788 175.511 19.1025C175.52 21.4541 175.475 23.7873 175.475 26.268ZM170.228 23.0311C170.228 21.1774 170.246 19.4345 170.21 17.6823C170.21 17.2673 170.055 16.8338 169.9 16.4373C169.589 15.6626 168.942 15.4505 168.166 15.4505C167.39 15.4505 166.898 15.8471 166.706 16.5572C166.122 18.6875 166.314 20.8639 166.332 23.0495C167.728 23.0311 168.996 23.0311 170.228 23.0311Z" fill="#FCFCFC"/>
<path d="M115.581 7.48314H110.152V3.03809H126.357V7.45547H120.964V36.791H115.59L115.581 7.48314Z" fill="#FCFCFC"/>
</svg>
